<svg id="visual" viewBox="0 0 900 600" preserveAspectRatio="none" xmlns="http://www.w3.org/2000/svg" xmlns:xlink="http://www.w3.org/1999/xlink" version="1.1"><path d="M836 600L836 594.5C836 589 836 578 834.5 566.8C833 555.7 830 544.3 831.5 533.2C833 522 839 511 840.5 500C842 489 839 478 836 466.8C833 455.7 830 444.3 831.5 433.2C833 422 839 411 843.5 400C848 389 851 378 849.5 366.8C848 355.7 842 344.3 839 333.2C836 322 836 311 836 300C836 289 836 278 836 266.8C836 255.7 836 244.3 834.5 233.2C833 222 830 211 828.5 200C827 189 827 178 827 166.8C827 155.7 827 144.3 827 133.2C827 122 827 111 828.5 100C830 89 833 78 836 66.8C839 55.7 842 44.3 843.5 33.2C845 22 845 11 845 5.5L845 0L900 0L900 5.5C900 11 900 22 900 33.2C900 44.3 900 55.7 900 66.8C900 78 900 89 900 100C900 111 900 122 900 133.2C900 144.3 900 155.7 900 166.8C900 178 900 189 900 200C900 211 900 222 900 233.2C900 244.3 900 255.7 900 266.8C900 278 900 289 900 300C900 311 900 322 900 333.2C900 344.3 900 355.7 900 366.8C900 378 900 389 900 400C900 411 900 422 900 433.2C900 444.3 900 455.7 900 466.8C900 478 900 489 900 500C900 511 900 522 900 533.2C900 544.3 900 555.7 900 566.8C900 578 900 589 900 594.5L900 600Z" fill="#0066ff"></path><path d="M674 600L671 594.5C668 589 662 578 662 566.8C662 555.7 668 544.3 672.5 533.2C677 522 680 511 671 500C662 489 641 478 636.5 466.8C632 455.7 644 444.3 645.5 433.2C647 422 638 411 639.5 400C641 389 653 378 650 366.8C647 355.7 629 344.3 632 333.2C635 322 659 311 669.5 300C680 289 677 278 669.5 266.8C662 255.7 650 244.3 648.5 233.2C647 222 656 211 662 200C668 189 671 178 663.5 166.8C656 155.7 638 144.3 633.5 133.2C629 122 638 111 647 100C656 89 665 78 665 66.8C665 55.7 656 44.3 656 33.2C656 22 665 11 669.5 5.5L674 0L846 0L846 5.5C846 11 846 22 844.5 33.2C843 44.3 840 55.7 837 66.8C834 78 831 89 829.5 100C828 111 828 122 828 133.2C828 144.3 828 155.7 828 166.8C828 178 828 189 829.5 200C831 211 834 222 835.5 233.2C837 244.3 837 255.7 837 266.8C837 278 837 289 837 300C837 311 837 322 840 333.2C843 344.3 849 355.7 850.5 366.8C852 378 849 389 844.5 400C840 411 834 422 832.5 433.2C831 444.3 834 455.7 837 466.8C840 478 843 489 841.5 500C840 511 834 522 832.5 533.2C831 544.3 834 555.7 835.5 566.8C837 578 837 589 837 594.5L837 600Z" fill="#9350e6"></path><path d="M620 600L618.5 594.5C617 589 614 578 617 566.8C620 555.7 629 544.3 635 533.2C641 522 644 511 632 500C620 489 593 478 588.5 466.8C584 455.7 602 444.3 606.5 433.2C611 422 602 411 600.5 400C599 389 605 378 599 366.8C593 355.7 575 344.3 581 333.2C587 322 617 311 627.5 300C638 289 629 278 620 266.8C611 255.7 602 244.3 600.5 233.2C599 222 605 211 609.5 200C614 189 617 178 612.5 166.8C608 155.7 596 144.3 594.5 133.2C593 122 602 111 608 100C614 89 617 78 614 66.8C611 55.7 602 44.3 603.5 33.2C605 22 617 11 623 5.5L629 0L675 0L670.5 5.5C666 11 657 22 657 33.2C657 44.3 666 55.7 666 66.8C666 78 657 89 648 100C639 111 630 122 634.5 133.2C639 144.3 657 155.7 664.5 166.8C672 178 669 189 663 200C657 211 648 222 649.5 233.2C651 244.3 663 255.7 670.5 266.8C678 278 681 289 670.5 300C660 311 636 322 633 333.2C630 344.3 648 355.7 651 366.8C654 378 642 389 640.5 400C639 411 648 422 646.5 433.2C645 444.3 633 455.7 637.5 466.8C642 478 663 489 672 500C681 511 678 522 673.5 533.2C669 544.3 663 555.7 663 566.8C663 578 669 589 672 594.5L675 600Z" fill="#c735c5"></path><path d="M557 600L552.5 594.5C548 589 539 578 542 566.8C545 555.7 560 544.3 569 533.2C578 522 581 511 567.5 500C554 489 524 478 519.5 466.8C515 455.7 536 444.3 543.5 433.2C551 422 545 411 540.5 400C536 389 533 378 527 366.8C521 355.7 512 344.3 518 333.2C524 322 545 311 551 300C557 289 548 278 542 266.8C536 255.7 533 244.3 533 233.2C533 222 536 211 537.5 200C539 189 539 178 537.5 166.8C536 155.7 533 144.3 533 133.2C533 122 536 111 542 100C548 89 557 78 554 66.8C551 55.7 536 44.3 536 33.2C536 22 551 11 558.5 5.5L566 0L630 0L624 5.5C618 11 606 22 604.5 33.2C603 44.3 612 55.7 615 66.8C618 78 615 89 609 100C603 111 594 122 595.5 133.2C597 144.3 609 155.7 613.5 166.8C618 178 615 189 610.5 200C606 211 600 222 601.5 233.2C603 244.3 612 255.7 621 266.8C630 278 639 289 628.5 300C618 311 588 322 582 333.2C576 344.3 594 355.7 600 366.8C606 378 600 389 601.5 400C603 411 612 422 607.5 433.2C603 444.3 585 455.7 589.5 466.8C594 478 621 489 633 500C645 511 642 522 636 533.2C630 544.3 621 555.7 618 566.8C615 578 618 589 619.5 594.5L621 600Z" fill="#e516a0"></path><path d="M512 600L509 594.5C506 589 500 578 504.5 566.8C509 555.7 524 544.3 533 533.2C542 522 545 511 531.5 500C518 489 488 478 482 466.8C476 455.7 494 444.3 500 433.2C506 422 500 411 497 400C494 389 494 378 488 366.8C482 355.7 470 344.3 476 333.2C482 322 506 311 513.5 300C521 289 512 278 506 266.8C500 255.7 497 244.3 497 233.2C497 222 500 211 501.5 200C503 189 503 178 500 166.8C497 155.7 491 144.3 491 133.2C491 122 497 111 503 100C509 89 515 78 510.5 66.8C506 55.7 491 44.3 491 33.2C491 22 506 11 513.5 5.5L521 0L567 0L559.5 5.5C552 11 537 22 537 33.2C537 44.3 552 55.7 555 66.8C558 78 549 89 543 100C537 111 534 122 534 133.2C534 144.3 537 155.7 538.5 166.8C540 178 540 189 538.5 200C537 211 534 222 534 233.2C534 244.3 537 255.7 543 266.8C549 278 558 289 552 300C546 311 525 322 519 333.2C513 344.3 522 355.7 528 366.8C534 378 537 389 541.5 400C546 411 552 422 544.5 433.2C537 444.3 516 455.7 520.5 466.8C525 478 555 489 568.5 500C582 511 579 522 570 533.2C561 544.3 546 555.7 543 566.8C540 578 549 589 553.5 594.5L558 600Z" fill="#f3127a"></path><path d="M413 600L414.5 594.5C416 589 419 578 426.5 566.8C434 555.7 446 544.3 453.5 533.2C461 522 464 511 450.5 500C437 489 407 478 401 466.8C395 455.7 413 444.3 417.5 433.2C422 422 413 411 410 400C407 389 410 378 407 366.8C404 355.7 395 344.3 401 333.2C407 322 428 311 437 300C446 289 443 278 437 266.8C431 255.7 422 244.3 416 233.2C410 222 407 211 410 200C413 189 422 178 422 166.8C422 155.7 413 144.3 408.5 133.2C404 122 404 111 410 100C416 89 428 78 428 66.8C428 55.7 416 44.3 413 33.2C410 22 416 11 419 5.5L422 0L522 0L514.5 5.5C507 11 492 22 492 33.2C492 44.3 507 55.7 511.5 66.8C516 78 510 89 504 100C498 111 492 122 492 133.2C492 144.3 498 155.7 501 166.8C504 178 504 189 502.5 200C501 211 498 222 498 233.2C498 244.3 501 255.7 507 266.8C513 278 522 289 514.5 300C507 311 483 322 477 333.2C471 344.3 483 355.7 489 366.8C495 378 495 389 498 400C501 411 507 422 501 433.2C495 444.3 477 455.7 483 466.8C489 478 519 489 532.5 500C546 511 543 522 534 533.2C525 544.3 510 555.7 505.5 566.8C501 578 507 589 510 594.5L513 600Z" fill="#f43056"></path><path d="M323 600L323 594.5C323 589 323 578 324.5 566.8C326 555.7 329 544.3 330.5 533.2C332 522 332 511 321.5 500C311 489 290 478 285.5 466.8C281 455.7 293 444.3 296 433.2C299 422 293 411 291.5 400C290 389 293 378 293 366.8C293 355.7 290 344.3 296 333.2C302 322 317 311 326 300C335 289 338 278 335 266.8C332 255.7 323 244.3 318.5 233.2C314 222 314 211 317 200C320 189 326 178 320 166.8C314 155.7 296 144.3 294.5 133.2C293 122 308 111 314 100C320 89 317 78 308 66.8C299 55.7 284 44.3 284 33.2C284 22 299 11 306.5 5.5L314 0L423 0L420 5.5C417 11 411 22 414 33.2C417 44.3 429 55.7 429 66.8C429 78 417 89 411 100C405 111 405 122 409.5 133.2C414 144.3 423 155.7 423 166.8C423 178 414 189 411 200C408 211 411 222 417 233.2C423 244.3 432 255.7 438 266.8C444 278 447 289 438 300C429 311 408 322 402 333.2C396 344.3 405 355.7 408 366.8C411 378 408 389 411 400C414 411 423 422 418.5 433.2C414 444.3 396 455.7 402 466.8C408 478 438 489 451.5 500C465 511 462 522 454.5 533.2C447 544.3 435 555.7 427.5 566.8C420 578 417 589 415.5 594.5L414 600Z" fill="#eb4d36"></path><path d="M260 600L260 594.5C260 589 260 578 261.5 566.8C263 555.7 266 544.3 269 533.2C272 522 275 511 266 500C257 489 236 478 233 466.8C230 455.7 245 444.3 246.5 433.2C248 422 236 411 231.5 400C227 389 230 378 230 366.8C230 355.7 227 344.3 234.5 333.2C242 322 260 311 269 300C278 289 278 278 273.5 266.8C269 255.7 260 244.3 258.5 233.2C257 222 263 211 269 200C275 189 281 178 272 166.8C263 155.7 239 144.3 234.5 133.2C230 122 245 111 252.5 100C260 89 260 78 254 66.8C248 55.7 236 44.3 236 33.2C236 22 248 11 254 5.5L260 0L315 0L307.5 5.5C300 11 285 22 285 33.2C285 44.3 300 55.7 309 66.8C318 78 321 89 315 100C309 111 294 122 295.5 133.2C297 144.3 315 155.7 321 166.8C327 178 321 189 318 200C315 211 315 222 319.5 233.2C324 244.3 333 255.7 336 266.8C339 278 336 289 327 300C318 311 303 322 297 333.2C291 344.3 294 355.7 294 366.8C294 378 291 389 292.5 400C294 411 300 422 297 433.2C294 444.3 282 455.7 286.5 466.8C291 478 312 489 322.5 500C333 511 333 522 331.5 533.2C330 544.3 327 555.7 325.5 566.8C324 578 324 589 324 594.5L324 600Z" fill="#d96614"></path><path d="M224 600L224 594.5C224 589 224 578 225.5 566.8C227 555.7 230 544.3 231.5 533.2C233 522 233 511 224 500C215 489 197 478 194 466.8C191 455.7 203 444.3 203 433.2C203 422 191 411 188 400C185 389 191 378 191 366.8C191 355.7 185 344.3 192.5 333.2C200 322 221 311 230 300C239 289 236 278 231.5 266.8C227 255.7 221 244.3 221 233.2C221 222 227 211 233 200C239 189 245 178 236 166.8C227 155.7 203 144.3 197 133.2C191 122 203 111 209 100C215 89 215 78 210.5 66.8C206 55.7 197 44.3 198.5 33.2C200 22 212 11 218 5.5L224 0L261 0L255 5.5C249 11 237 22 237 33.2C237 44.3 249 55.7 255 66.8C261 78 261 89 253.5 100C246 111 231 122 235.5 133.2C240 144.3 264 155.7 273 166.8C282 178 276 189 270 200C264 211 258 222 259.5 233.2C261 244.3 270 255.7 274.5 266.8C279 278 279 289 270 300C261 311 243 322 235.5 333.2C228 344.3 231 355.7 231 366.8C231 378 228 389 232.5 400C237 411 249 422 247.5 433.2C246 444.3 231 455.7 234 466.8C237 478 258 489 267 500C276 511 273 522 270 533.2C267 544.3 264 555.7 262.5 566.8C261 578 261 589 261 594.5L261 600Z" fill="#c37b00"></path><path d="M35 600L35 594.5C35 589 35 578 36.5 566.8C38 555.7 41 544.3 41 533.2C41 522 38 511 38 500C38 489 41 478 42.5 466.8C44 455.7 44 444.3 44 433.2C44 422 44 411 44 400C44 389 44 378 42.5 366.8C41 355.7 38 344.3 38 333.2C38 322 41 311 41 300C41 289 38 278 38 266.8C38 255.7 41 244.3 41 233.2C41 222 38 211 38 200C38 189 41 178 41 166.8C41 155.7 38 144.3 36.5 133.2C35 122 35 111 35 100C35 89 35 78 35 66.8C35 55.7 35 44.3 36.5 33.2C38 22 41 11 42.5 5.5L44 0L225 0L219 5.5C213 11 201 22 199.5 33.2C198 44.3 207 55.7 211.5 66.8C216 78 216 89 210 100C204 111 192 122 198 133.2C204 144.3 228 155.7 237 166.8C246 178 240 189 234 200C228 211 222 222 222 233.2C222 244.3 228 255.7 232.5 266.8C237 278 240 289 231 300C222 311 201 322 193.5 333.2C186 344.3 192 355.7 192 366.8C192 378 186 389 189 400C192 411 204 422 204 433.2C204 444.3 192 455.7 195 466.8C198 478 216 489 225 500C234 511 234 522 232.5 533.2C231 544.3 228 555.7 226.5 566.8C225 578 225 589 225 594.5L225 600Z" fill="#a88c00"></path><path d="M0 600L0 594.5C0 589 0 578 0 566.8C0 555.7 0 544.3 0 533.2C0 522 0 511 0 500C0 489 0 478 0 466.8C0 455.7 0 444.3 0 433.2C0 422 0 411 0 400C0 389 0 378 0 366.8C0 355.7 0 344.3 0 333.2C0 322 0 311 0 300C0 289 0 278 0 266.8C0 255.7 0 244.3 0 233.2C0 222 0 211 0 200C0 189 0 178 0 166.8C0 155.7 0 144.3 0 133.2C0 122 0 111 0 100C0 89 0 78 0 66.8C0 55.7 0 44.3 0 33.2C0 22 0 11 0 5.5L0 0L45 0L43.5 5.5C42 11 39 22 37.5 33.2C36 44.3 36 55.7 36 66.8C36 78 36 89 36 100C36 111 36 122 37.5 133.2C39 144.3 42 155.7 42 166.8C42 178 39 189 39 200C39 211 42 222 42 233.2C42 244.3 39 255.7 39 266.8C39 278 42 289 42 300C42 311 39 322 39 333.2C39 344.3 42 355.7 43.5 366.8C45 378 45 389 45 400C45 411 45 422 45 433.2C45 444.3 45 455.7 43.5 466.8C42 478 39 489 39 500C39 511 42 522 42 533.2C42 544.3 39 555.7 37.5 566.8C36 578 36 589 36 594.5L36 600Z" fill="#8b9900"></path></svg>