<?xml version="1.0" standalone="no"?>
<!DOCTYPE svg PUBLIC "-//W3C//DTD SVG 20010904//EN"
 "http://www.w3.org/TR/2001/REC-SVG-20010904/DTD/svg10.dtd">
<svg version="1.0" xmlns="http://www.w3.org/2000/svg"
 width="1010.000000pt" height="288.000000pt" viewBox="0 0 1010.000000 288.000000"
 preserveAspectRatio="xMidYMid meet">

<g transform="translate(0.000000,288.000000) scale(0.100000,-0.100000)"
fill="#000000" stroke="none">
<path d="M4631 2443 c-169 -14 -198 -20 -121 -23 l55 -2 -60 -13 c-146 -32
-277 -100 -389 -205 -60 -56 -67 -60 -112 -60 -40 0 -54 -5 -74 -27 l-25 -26
53 6 c28 3 52 3 52 0 0 -3 -16 -27 -35 -53 -70 -96 -119 -232 -133 -372 -7
-69 -8 -73 -31 -70 -44 6 -71 -6 -71 -33 0 -23 4 -25 49 -25 l48 0 7 -77 c7
-85 3 -93 -51 -93 -25 0 -30 -3 -26 -19 4 -15 10 -17 46 -10 48 8 57 5 57 -22
0 -16 -7 -19 -45 -19 -36 0 -43 -3 -38 -16 3 -9 16 -15 32 -14 61 4 69 1 81
-36 14 -41 117 -199 149 -228 12 -11 21 -22 21 -25 0 -3 -26 -5 -57 -3 -50 3
-62 8 -87 35 -45 50 38 -67 93 -132 111 -129 300 -248 466 -293 115 -31 383
-31 500 0 324 87 605 377 687 707 32 130 31 334 -1 460 -28 108 -73 209 -132
296 -51 77 -185 212 -254 259 -44 30 -40 24 36 -51 107 -104 165 -179 147
-191 -10 -6 -8 -8 4 -8 19 0 42 -35 33 -50 -3 -6 -24 -10 -46 -10 -36 0 -42 4
-71 48 -46 67 -184 203 -249 245 -68 44 -161 83 -253 108 l-71 19 85 -2 c47
-1 108 -1 135 1 l50 3 -30 13 c-43 19 -248 22 -424 8z m17 -20 c-16 -2 -40 -2
-55 0 -16 2 -3 4 27 4 30 0 43 -2 28 -4z m140 0 c-15 -2 -42 -2 -60 0 -18 2
-6 4 27 4 33 0 48 -2 33 -4z m132 -93 c175 -41 344 -150 459 -298 50 -63 57
-69 79 -61 38 14 82 11 82 -6 0 -14 -29 -19 -87 -18 -6 0 -9 -5 -6 -13 3 -8
26 -14 61 -16 l56 -3 22 -71 c34 -106 47 -250 34 -365 -15 -133 -21 -153 -51
-157 -36 -5 -48 -22 -15 -22 26 0 28 -2 22 -27 -7 -28 -65 -151 -88 -188 -30
-46 -98 -133 -132 -167 -35 -36 -40 -38 -104 -38 -45 -1 -74 -6 -87 -16 -18
-15 -14 -15 55 -9 l75 6 -39 -33 c-21 -18 -65 -50 -99 -71 l-61 -37 -180 -1
c-100 -1 -197 -2 -216 -1 -19 0 -90 -6 -157 -14 -181 -21 -194 -20 -282 26
-72 38 -212 140 -219 160 -2 6 23 10 56 10 45 0 67 -5 93 -23 75 -50 93 -57
49 -21 -210 175 -313 371 -327 620 -24 420 280 799 692 864 69 10 249 5 315
-10z m40 -1640 c60 -1 37 -13 -65 -35 -99 -22 -303 -24 -400 -5 l-70 14 40 8
c68 15 255 27 355 22 52 -2 115 -4 140 -4z"/>
<path d="M5508 1823 c6 -2 18 -2 25 0 6 3 1 5 -13 5 -14 0 -19 -2 -12 -5z"/>
<path d="M3444 2415 c-12 -9 -42 -14 -80 -15 -49 0 -65 -4 -80 -21 l-19 -22
52 5 c68 6 64 1 -66 -111 -104 -91 -125 -101 -210 -101 -19 0 -32 -2 -29 -5
12 -12 58 -15 83 -5 42 16 20 -11 -81 -98 -128 -109 -306 -263 -323 -278 -12
-11 6 -34 115 -146 l128 -133 -62 -3 -62 -3 -85 88 -84 88 -1 -167 0 -168 -45
0 c-25 0 -45 -4 -45 -10 0 -5 20 -10 45 -10 l45 0 -2 -267 -3 -268 -40 -6 -40
-6 43 -2 43 -1 -3 -42 c-2 -35 -7 -43 -26 -48 -24 -5 -24 -5 -4 -23 28 -26 73
-19 89 13 9 19 13 114 14 370 0 321 6 441 22 456 21 22 85 -38 448 -416 216
-226 407 -420 425 -430 38 -24 87 -26 108 -4 9 8 16 18 16 20 0 34 -92 138
-474 538 -270 283 -448 477 -452 493 -4 16 -1 37 7 52 8 14 129 126 269 249
447 390 441 384 422 427 -13 29 -30 31 -58 10z m-527 -952 c-20 -2 -52 -2 -70
0 -17 2 0 4 38 4 39 0 53 -2 32 -4z m102 -68 l43 -42 -57 -8 -58 -7 -55 55
-55 55 69 -5 c65 -5 72 -8 113 -48z m135 -141 l58 -64 -64 0 c-63 0 -64 0
-109 48 -81 85 -81 82 -8 81 l64 0 59 -65z m300 -314 c123 -129 223 -236 222
-238 -2 -1 -32 1 -67 4 -58 6 -68 11 -104 48 -22 23 -120 124 -218 226 l-178
185 33 6 c78 16 75 18 312 -231z m249 -260 c5 0 6 -3 3 -8 -3 -6 -47 -7 -118
-2 -5 0 -8 4 -8 9 0 5 26 8 58 6 31 -3 61 -4 65 -5z"/>
<path d="M6486 2415 c-4 -12 -30 -15 -143 -15 -76 0 -168 -3 -205 -7 l-68 -6
0 -118 c0 -117 0 -119 -22 -120 l-23 0 22 -9 22 -9 1 -325 c0 -311 -1 -326
-19 -336 -11 -5 -29 -11 -40 -13 -41 -6 -33 -17 12 -17 l47 0 0 -44 0 -45 -45
-7 c-25 -3 -45 -10 -45 -15 0 -5 20 -9 45 -9 l45 0 0 -65 c0 -59 -2 -67 -22
-75 l-23 -9 23 0 22 -1 -2 -252 -3 -252 -24 -6 -25 -6 27 -21 c31 -24 57 -21
84 9 17 19 18 66 23 829 5 759 6 809 23 826 15 15 41 19 160 23 157 5 197 18
197 63 0 38 -32 61 -44 32z"/>
<path d="M7015 2420 c-22 -4 -76 -6 -120 -3 -69 5 -82 3 -95 -12 -14 -17 -11
-18 64 -11 l79 7 -44 -33 c-87 -67 -122 -162 -100 -272 22 -106 101 -192 274
-295 55 -33 45 -20 -18 23 -67 46 -126 110 -156 168 -32 60 -33 165 -2 224 46
86 121 127 233 127 86 0 155 -25 228 -81 24 -18 46 -32 48 -29 9 8 -57 85
-101 116 -82 59 -205 89 -290 71z"/>
<path d="M2640 2410 c0 -5 -13 -10 -29 -10 -17 0 -33 -4 -36 -10 -4 -6 8 -10
29 -10 l36 0 0 -175 0 -175 -27 -1 c-34 -1 -57 -10 -60 -25 -1 -8 13 -10 42
-6 45 5 45 4 45 -27 l0 -31 -46 7 c-38 5 -46 3 -42 -8 3 -8 21 -15 46 -17 l41
-3 3 -47 3 -46 35 31 35 31 -3 244 c-3 190 -7 248 -18 266 -14 22 -54 31 -54
12z"/>
<path d="M7370 2417 c0 -3 16 -21 35 -40 33 -33 35 -39 35 -102 0 -63 1 -66
22 -63 14 2 26 14 32 31 14 39 -22 105 -80 146 -24 18 -44 30 -44 28z"/>
<path d="M5654 2403 l-42 -4 14 -29 c20 -40 59 -50 196 -50 66 0 128 -4 138
-10 16 -9 18 -5 22 34 l3 44 -70 6 c-120 10 -218 14 -261 9z"/>
<path d="M6720 2021 c0 -6 5 -13 10 -16 6 -3 10 -2 10 4 0 5 8 12 18 14 10 3
6 5 -10 6 -16 0 -28 -3 -28 -8z"/>
<path d="M2765 1930 c-3 -6 1 -7 9 -4 18 7 21 14 7 14 -6 0 -13 -4 -16 -10z"/>
<path d="M6790 1880 c32 -61 149 -158 325 -269 213 -135 314 -208 349 -254 25
-32 28 -33 81 -29 51 4 55 3 64 -20 5 -13 12 -50 16 -81 l7 -57 -44 0 c-43 0
-45 -1 -40 -25 4 -22 10 -25 45 -25 l40 0 -6 -58 c-4 -32 -12 -76 -19 -98 -13
-38 -14 -39 -65 -42 -40 -2 -55 -8 -63 -22 -9 -17 -5 -19 35 -26 25 -3 45 -10
45 -14 0 -4 -24 -32 -53 -62 -71 -74 -148 -118 -209 -118 -28 0 -48 -5 -51
-12 -2 -7 -15 -13 -28 -14 -89 -3 -104 -5 -84 -15 35 -17 -166 -1 -225 17 -49
15 -52 18 -30 25 23 6 23 7 -8 8 -47 1 -97 25 -155 73 -46 39 -49 40 -30 13
94 -134 266 -215 455 -215 259 0 470 140 539 359 29 93 30 250 0 342 -37 117
-124 227 -261 329 -55 41 -116 78 -77 47 9 -8 17 -17 17 -20 0 -3 -8 -8 -17
-11 -15 -4 -14 -4 2 -3 37 2 60 -12 126 -80 59 -60 128 -158 118 -167 -2 -2
-25 -6 -51 -8 -46 -5 -48 -4 -73 34 -35 52 -98 112 -169 161 -51 34 -57 41
-40 48 14 5 11 7 -13 6 -22 0 -57 16 -110 50 -43 28 -118 76 -166 107 -49 31
-111 78 -139 104 -37 34 -47 40 -38 22z"/>
<path d="M7127 1769 c7 -7 15 -10 18 -7 3 3 -2 9 -12 12 -14 6 -15 5 -6 -5z"/>
<path d="M5998 953 c6 -2 18 -2 25 0 6 3 1 5 -13 5 -14 0 -19 -2 -12 -5z"/>
<path d="M6725 878 c32 -38 89 -85 130 -105 17 -9 28 -14 25 -11 -3 2 -40 37
-82 76 -79 74 -121 97 -73 40z"/>
<path d="M6976 662 c-5 -8 146 -5 169 3 6 2 -29 4 -77 4 -48 1 -89 -3 -92 -7z"/>
<path d="M7078 643 c7 -3 16 -2 19 1 4 3 -2 6 -13 5 -11 0 -14 -3 -6 -6z"/>
</g>
</svg>
